<?xml version="1.0" encoding="UTF-8" standalone="no"?>
<svg
   xmlns:dc="http://purl.org/dc/elements/1.1/"
   xmlns:cc="http://creativecommons.org/ns#"
   xmlns:rdf="http://www.w3.org/1999/02/22-rdf-syntax-ns#"
   xmlns:svg="http://www.w3.org/2000/svg"
   xmlns="http://www.w3.org/2000/svg"
   xmlns:sodipodi="http://sodipodi.sourceforge.net/DTD/sodipodi-0.dtd"
   xmlns:inkscape="http://www.inkscape.org/namespaces/inkscape"
   width="271.17969pt"
   height="55.421871pt"
   viewBox="0 0 271.17968 55.421871"
   version="1.2"
   id="svg43"
   sodipodi:docname="oneline-white-bg.svg"
   inkscape:version="0.92.2 5c3e80d, 2017-08-06">
  <metadata
     id="metadata49">
    <rdf:RDF>
      <cc:Work
         rdf:about="">
        <dc:format>image/svg+xml</dc:format>
        <dc:type
           rdf:resource="http://purl.org/dc/dcmitype/StillImage" />
        <dc:title></dc:title>
      </cc:Work>
    </rdf:RDF>
  </metadata>
  <defs
     id="defs47" />
  <sodipodi:namedview
     pagecolor="#ffffff"
     bordercolor="#666666"
     borderopacity="1"
     objecttolerance="10"
     gridtolerance="10"
     guidetolerance="10"
     inkscape:pageopacity="0"
     inkscape:pageshadow="2"
     inkscape:window-width="1633"
     inkscape:window-height="885"
     id="namedview45"
     showgrid="false"
     fit-margin-top="0"
     fit-margin-left="0"
     fit-margin-right="0"
     fit-margin-bottom="0"
     inkscape:zoom="1.3707233"
     inkscape:cx="165.41726"
     inkscape:cy="-74.701266"
     inkscape:window-x="0"
     inkscape:window-y="0"
     inkscape:window-maximized="0"
     inkscape:current-layer="surface562" />
  <g
     id="surface562"
     transform="translate(-285.48437,-269.34766)">
    <path
       style="fill:#2e3a57;fill-opacity:1;fill-rule:nonzero;stroke:none"
       d="m 353.36328,296.06641 h 0.93359 c 1.375,0 2.32813,-0.1836 2.85157,-0.54688 0.52734,-0.36328 0.78906,-0.92969 0.78906,-1.70312 0,-0.88282 -0.26563,-1.48829 -0.80078,-1.8125 -0.53125,-0.32422 -1.4336,-0.48829 -2.70703,-0.48829 h -1.06641 z m -3.1875,9.57421 v -17.16796 h 4.24609 c 2.03907,0 3.5,0.26171 4.38282,0.78515 1.54687,0.94531 2.32031,2.44922 2.32031,4.50391 0,0.98828 -0.19922,1.89062 -0.60547,2.70703 -0.40234,0.81641 -0.95312,1.4375 -1.64453,1.86719 -0.47656,0.29297 -1.03906,0.49609 -1.6875,0.60547 -0.64844,0.10937 -1.58203,0.16406 -2.80469,0.16406 h -1.01953 v 6.53515 z m 0,0"
       id="path4"
       inkscape:connector-curvature="0" />
    <path
       style="fill:#2e3a57;fill-opacity:1;fill-rule:nonzero;stroke:none"
       d="m 366.36719,296.66797 h 1.55468 c 1.22657,0 2.11719,-0.20703 2.67188,-0.61328 0.55469,-0.41016 0.83594,-1.07032 0.83594,-1.98828 0,-0.85157 -0.25782,-1.49219 -0.76953,-1.91797 -0.50782,-0.42188 -1.46875,-0.63282 -2.875,-0.63282 h -1.41797 z m -3.1875,8.97265 v -17.16406 h 4.9375 c 1.17578,0 2.11328,0.0899 2.80859,0.27344 0.69141,0.1875 1.32031,0.51953 1.87891,0.99609 1.20703,1.01953 1.8125,2.42969 1.8125,4.23047 0,2.8125 -1.49219,4.58985 -4.47657,5.33594 l 4.63282,6.32812 h -3.92578 l -4.48047,-6.54687 v 6.54687 z m 0,0"
       id="path6"
       inkscape:connector-curvature="0" />
    <path
       style="fill:#2e3a57;fill-opacity:1;fill-rule:nonzero;stroke:none"
       d="m 376.64844,305.64062 v -17.16796 h 9.22265 v 3.04296 h -6.03515 v 4.03907 h 5.78515 v 3.03906 h -5.78515 v 4.00781 h 6.03515 v 3.03906 z m 0,0"
       id="path8"
       inkscape:connector-curvature="0" />
    <path
       style="fill:#2e3a57;fill-opacity:1;fill-rule:nonzero;stroke:none"
       d="m 391.90625,302.60156 h 0.69531 c 1.875,0 3.26953,-0.25781 4.1836,-0.77344 0.75781,-0.41406 1.35937,-1.04687 1.80859,-1.89843 0.45312,-0.85157 0.67969,-1.80078 0.67969,-2.84375 0,-1.09766 -0.23438,-2.07813 -0.69922,-2.94141 -0.46485,-0.86719 -1.10547,-1.51172 -1.92188,-1.9375 -0.91797,-0.46094 -2.28906,-0.69141 -4.12109,-0.69141 h -0.625 z m -3.1875,3.03906 v -17.16406 h 3.92187 c 2.6875,0 4.71485,0.40625 6.08204,1.22266 1.1914,0.71094 2.11328,1.71484 2.76171,3.00781 0.64844,1.29297 0.97657,2.75391 0.97657,4.37891 0,1.73437 -0.375,3.26953 -1.11719,4.61328 -0.74219,1.33984 -1.77344,2.33984 -3.08594,2.98828 -1.26953,0.63672 -3.11719,0.95312 -5.53906,0.95312 z m 0,0"
       id="path10"
       inkscape:connector-curvature="0" />
    <path
       style="fill:#2e3a57;fill-opacity:1;fill-rule:nonzero;stroke:none"
       d="m 404.98047,288.47656 h 3.1875 v 17.16406 h -3.1875 z m 0,0"
       id="path12"
       inkscape:connector-curvature="0" />
    <path
       style="fill:#2e3a57;fill-opacity:1;fill-rule:nonzero;stroke:none"
       d="m 410.59375,297 c 0,-2.4375 0.85937,-4.51953 2.58203,-6.24219 1.72266,-1.72656 3.80078,-2.58984 6.23438,-2.58984 1.78515,0 3.40234,0.46094 4.84375,1.38672 1.44531,0.92187 2.53906,2.20312 3.28125,3.84375 h -3.55079 c -0.58984,-0.76172 -1.24218,-1.32032 -1.95312,-1.66797 -0.71094,-0.34766 -1.5625,-0.52344 -2.55078,-0.52344 -1.62891,0 -2.98438,0.5625 -4.07031,1.68359 -1.08594,1.1211 -1.62891,2.5 -1.62891,4.13282 0,1.62109 0.56641,3.0039 1.69922,4.15625 1.1289,1.15234 2.48437,1.72656 4.0664,1.72656 0.83985,0 1.58594,-0.15625 2.23438,-0.47266 0.65234,-0.3125 1.32422,-0.83984 2.01953,-1.58203 h 3.73438 c -0.66797,1.56641 -1.71485,2.8086 -3.14454,3.72266 -1.42968,0.91406 -3.01953,1.375 -4.77734,1.375 -2.50781,0 -4.64062,-0.8711 -6.39062,-2.61719 -1.75391,-1.73828 -2.62891,-3.85156 -2.62891,-6.33203"
       id="path14"
       inkscape:connector-curvature="0" />
    <path
       style="fill:#2e3a57;fill-opacity:1;fill-rule:nonzero;stroke:none"
       d="m 428.19141,291.51562 v -3.04296 h 9.54296 v 3.04296 h -3.17578 v 14.125 h -3.1875 v -14.125 z m 0,0"
       id="path16"
       inkscape:connector-curvature="0" />
    <path
       style="fill:#2e3a57;fill-opacity:1;fill-rule:nonzero;stroke:none"
       d="m 439.35547,288.47656 h 3.1914 v 17.16406 h -3.1914 z m 0,0"
       id="path18"
       inkscape:connector-curvature="0" />
    <path
       style="fill:#2e3a57;fill-opacity:1;fill-rule:nonzero;stroke:none"
       d="m 448.16016,297.07031 c 0,1.63281 0.5625,3.01563 1.6875,4.14453 1.125,1.125 2.5,1.69141 4.1289,1.69141 1.62891,0 2.98047,-0.55078 4.0586,-1.65625 1.07812,-1.10938 1.62109,-2.49219 1.62109,-4.16016 0,-1.64843 -0.54688,-3.03906 -1.64063,-4.17578 -1.09375,-1.13672 -2.4414,-1.70312 -4.03906,-1.70312 -1.66015,0 -3.04297,0.55859 -4.15234,1.67968 -1.10547,1.1211 -1.66406,2.51563 -1.66406,4.17969 m -3.1875,0 c 0,-2.51172 0.87109,-4.625 2.61328,-6.33594 1.73828,-1.71093 3.88281,-2.5664 6.4375,-2.5664 2.44922,0 4.53125,0.87109 6.24609,2.60547 1.71484,1.73828 2.57422,3.82812 2.57422,6.27343 0,2.51172 -0.85156,4.6211 -2.55078,6.33204 -1.70313,1.71093 -3.80078,2.57031 -6.29297,2.57031 -2.52344,0 -4.65625,-0.86328 -6.40625,-2.58203 -1.74609,-1.71875 -2.62109,-3.82032 -2.62109,-6.29688"
       id="path20"
       inkscape:connector-curvature="0" />
    <path
       style="fill:#2e3a57;fill-opacity:1;fill-rule:nonzero;stroke:none"
       d="m 465.375,305.64062 v -17.16796 h 3.69531 l 7.03516,12.36328 v -12.36328 h 3.1914 v 17.16796 h -3.55468 l -7.17969,-12.48046 v 12.48046 z m 0,0"
       id="path22"
       inkscape:connector-curvature="0" />
    <path
       style="fill:#8791b3;fill-opacity:1;fill-rule:nonzero;stroke:none"
       d="m 482.5625,305.64062 v -17.16796 h 4.25781 l 4.66797,13.12109 4.61328,-13.12109 h 4.41016 v 17.16796 h -3.1875 v -12.875 l -4.49219,12.875 h -2.59766 L 485.75,292.74609 v 12.89453 z m 0,0"
       id="path24"
       inkscape:connector-curvature="0" />
    <path
       style="fill:#8791b3;fill-opacity:1;fill-rule:nonzero;stroke:none"
       d="m 508.63672,298.16406 h 3.67578 l -1.83594,-5.20703 z m -6.58203,7.47656 7.21875,-17.16406 h 2.42578 l 7.22656,17.16406 h -3.45703 l -1.88672,-4.43359 h -6.10156 l -1.91016,4.43359 z m 0,0"
       id="path26"
       inkscape:connector-curvature="0" />
    <path
       style="fill:#8791b3;fill-opacity:1;fill-rule:nonzero;stroke:none"
       d="m 523.85156,296.66797 h 1.55469 c 1.22266,0 2.11719,-0.20703 2.67187,-0.61328 0.55469,-0.41016 0.83594,-1.07032 0.83594,-1.98828 0,-0.85157 -0.25781,-1.49219 -0.76562,-1.91797 -0.51563,-0.42188 -1.47266,-0.63282 -2.87891,-0.63282 h -1.41797 z m -3.1875,8.97265 v -17.16406 h 4.9375 c 1.17578,0 2.11328,0.0899 2.8086,0.27344 0.6914,0.1875 1.32031,0.51953 1.8789,0.99609 1.20703,1.01953 1.8086,2.42969 1.8086,4.23047 0,2.8125 -1.48829,4.58985 -4.47657,5.33594 l 4.63672,6.32812 h -3.92578 l -4.48047,-6.54687 v 6.54687 z m 0,0"
       id="path28"
       inkscape:connector-curvature="0" />
    <path
       style="fill:#8791b3;fill-opacity:1;fill-rule:nonzero;stroke:none"
       d="m 534.12891,305.64062 v -17.16796 h 3.1875 v 7.41015 l 5.32421,-7.41015 h 3.83594 l -6.46875,8.43359 6.46875,8.73437 h -3.83594 l -5.32421,-7.55078 v 7.55078 z m 0,0"
       id="path30"
       inkscape:connector-curvature="0" />
    <path
       style="fill:#8791b3;fill-opacity:1;fill-rule:nonzero;stroke:none"
       d="m 547.12109,291.51562 v -3.04296 h 9.54297 v 3.04296 h -3.17578 v 14.125 h -3.1875 v -14.125 z m 0,0"
       id="path32"
       inkscape:connector-curvature="0" />
    <path
       style="fill:#2e3a57;fill-opacity:1;fill-rule:nonzero;stroke:none"
       d="m 304.60547,282.09375 h -6.375 v 29.92578 h 6.375 v -23.55078 c 3.15625,0 5.72265,2.56641 5.72265,5.72266 0,1.36328 -0.48046,2.62109 -1.28515,3.60546 -0.40625,0.5 -0.79688,0.98829 -0.79688,0.98829 l 4.94922,4.01562 c 0,0 0.53125,-0.65625 0.80078,-0.98828 1.69141,-2.07813 2.70313,-4.73828 2.70313,-7.62109 0,-6.67188 -5.42578,-12.09766 -12.09375,-12.09766"
       id="path34"
       inkscape:connector-curvature="0" />
    <path
       style="fill:#8791b3;fill-opacity:1;fill-rule:nonzero;stroke:none"
       d="m 321.78516,282.09375 h -0.008 l -4.875,6.01562 c 0.91016,1.83594 1.4375,3.89454 1.4375,6.08204 0,0.86718 -0.0898,1.73046 -0.2539,2.57812 l 3.69922,-4.5625 v 19.8125 h 6.375 v -29.92578 z m 0,0"
       id="path36"
       inkscape:connector-curvature="0" />
    <path
       style="fill:#2e3a57;fill-opacity:1;fill-rule:nonzero;stroke:none"
       d="m 291.85937,317.22656 v -41.5039 h 41.50391 l 6.375,-6.375 h -54.25391 v 54.2539 z m 0,0"
       id="path38"
       inkscape:connector-curvature="0" />
    <path
       style="fill:#8791b3;fill-opacity:1;fill-rule:nonzero;stroke:none"
       d="m 334.53125,276.88672 v 41.50781 h -41.50391 l -6.375,6.375 h 54.25391 v -54.25781 z m 0,0"
       id="path40"
       inkscape:connector-curvature="0" />
  </g>
</svg>
