<?xml version="1.0" encoding="UTF-8" standalone="no"?>
<svg
   xmlns:dc="http://purl.org/dc/elements/1.1/"
   xmlns:cc="http://creativecommons.org/ns#"
   xmlns:rdf="http://www.w3.org/1999/02/22-rdf-syntax-ns#"
   xmlns:svg="http://www.w3.org/2000/svg"
   xmlns="http://www.w3.org/2000/svg"
   xmlns:sodipodi="http://sodipodi.sourceforge.net/DTD/sodipodi-0.dtd"
   xmlns:inkscape="http://www.inkscape.org/namespaces/inkscape"
   width="271.17969pt"
   height="55.421875pt"
   viewBox="0 0 271.17968 55.421875"
   version="1.2"
   id="svg43"
   sodipodi:docname="oneline-orig.svg"
   inkscape:version="0.92.2 5c3e80d, 2017-08-06">
  <metadata
     id="metadata49">
    <rdf:RDF>
      <cc:Work
         rdf:about="">
        <dc:format>image/svg+xml</dc:format>
        <dc:type
           rdf:resource="http://purl.org/dc/dcmitype/StillImage" />
        <dc:title></dc:title>
      </cc:Work>
    </rdf:RDF>
  </metadata>
  <defs
     id="defs47" />
  <sodipodi:namedview
     pagecolor="#ffffff"
     bordercolor="#666666"
     borderopacity="1"
     objecttolerance="10"
     gridtolerance="10"
     guidetolerance="10"
     inkscape:pageopacity="0"
     inkscape:pageshadow="2"
     inkscape:window-width="1689"
     inkscape:window-height="910"
     id="namedview45"
     showgrid="false"
     fit-margin-top="0"
     fit-margin-left="0"
     fit-margin-right="0"
     fit-margin-bottom="0"
     inkscape:zoom="1.3707233"
     inkscape:cx="177.2668"
     inkscape:cy="145.49996"
     inkscape:window-x="0"
     inkscape:window-y="0"
     inkscape:window-maximized="0"
     inkscape:current-layer="surface703" />
  <g
     id="surface703"
     transform="translate(-285.70703,-269.30078)">
    <g
       id="g871">
      <path
         id="path4"
         d="m 353.58594,296.01953 h 0.92968 c 1.375,0 2.32813,-0.18359 2.85547,-0.54297 0.52344,-0.36328 0.78907,-0.93359 0.78907,-1.70312 0,-0.88672 -0.26954,-1.49219 -0.80079,-1.81641 -0.53515,-0.32422 -1.4375,-0.48828 -2.70703,-0.48828 h -1.0664 z m -3.1875,9.57422 v -17.16406 h 4.24609 c 2.03516,0 3.49609,0.25781 4.37891,0.78125 1.55078,0.94531 2.32422,2.44922 2.32422,4.5039 0,0.99219 -0.20313,1.89063 -0.60547,2.70703 -0.40625,0.81641 -0.95313,1.4375 -1.64844,1.86719 -0.47266,0.29688 -1.03516,0.5 -1.68359,0.60547 -0.64844,0.10938 -1.58594,0.16406 -2.8086,0.16406 h -1.01562 v 6.53516 z m 0,0"
         style="fill:#ffffff;fill-opacity:1;fill-rule:nonzero;stroke:none"
         inkscape:connector-curvature="0" />
      <path
         id="path6"
         d="m 366.58984,296.62109 h 1.55078 c 1.22657,0 2.11719,-0.20703 2.67579,-0.61328 0.55468,-0.41015 0.83203,-1.07031 0.83203,-1.98437 0,-0.85547 -0.25391,-1.4961 -0.76563,-1.91797 -0.51172,-0.42188 -1.46875,-0.63672 -2.875,-0.63672 h -1.41797 z m -3.1875,8.97266 v -17.16406 h 4.9336 c 1.17968,0 2.11328,0.0937 2.80859,0.27734 0.69531,0.18359 1.32031,0.51563 1.88281,0.99219 1.20703,1.02344 1.8086,2.43359 1.8086,4.23437 0,2.8125 -1.49219,4.58985 -4.47657,5.33203 l 4.63672,6.32813 h -3.92578 l -4.48047,-6.54688 v 6.54688 z m 0,0"
         style="fill:#ffffff;fill-opacity:1;fill-rule:nonzero;stroke:none"
         inkscape:connector-curvature="0" />
      <path
         id="path8"
         d="m 376.86719,305.59375 v -17.16406 h 9.22656 v 3.03906 h -6.03906 v 4.03906 h 5.78906 v 3.04297 h -5.78906 v 4.00391 h 6.03906 v 3.03906 z m 0,0"
         style="fill:#ffffff;fill-opacity:1;fill-rule:nonzero;stroke:none"
         inkscape:connector-curvature="0" />
      <path
         id="path10"
         d="m 392.12891,302.55469 h 0.6914 c 1.875,0 3.26953,-0.25782 4.1875,-0.76953 0.75391,-0.41797 1.35938,-1.05079 1.8086,-1.90235 0.44921,-0.85156 0.67578,-1.79687 0.67578,-2.84375 0,-1.09375 -0.23438,-2.07812 -0.69922,-2.9414 -0.46485,-0.86719 -1.10547,-1.51172 -1.92188,-1.9375 -0.91406,-0.46094 -2.28906,-0.69141 -4.11718,-0.69141 h -0.625 z m -3.1875,3.03906 v -17.16406 h 3.91796 c 2.6875,0 4.71485,0.40625 6.08204,1.22265 1.19531,0.71485 2.11328,1.71485 2.76562,3.00782 0.64844,1.29296 0.97266,2.7539 0.97266,4.3789 0,1.73438 -0.3711,3.26953 -1.11719,4.61328 -0.74219,1.34375 -1.76953,2.33985 -3.08594,2.98828 -1.26562,0.63672 -3.11328,0.95313 -5.53906,0.95313 z m 0,0"
         style="fill:#ffffff;fill-opacity:1;fill-rule:nonzero;stroke:none"
         inkscape:connector-curvature="0" />
      <path
         id="path12"
         d="m 405.19922,288.42969 h 3.1875 v 17.16797 h -3.1875 z m 0,0"
         style="fill:#ffffff;fill-opacity:1;fill-rule:nonzero;stroke:none"
         inkscape:connector-curvature="0" />
      <path
         id="path14"
         d="m 410.81641,296.95312 c 0,-2.43359 0.85937,-4.51562 2.57812,-6.24218 1.72266,-1.72657 3.80078,-2.58985 6.23828,-2.58985 1.78516,0 3.39844,0.46485 4.84375,1.38672 1.44531,0.92188 2.53516,2.20313 3.27735,3.84375 h -3.55079 c -0.58984,-0.76172 -1.24218,-1.32031 -1.94921,-1.66797 -0.71094,-0.34765 -1.5625,-0.51953 -2.55469,-0.51953 -1.625,0 -2.98438,0.5586 -4.06641,1.67969 -1.08594,1.12109 -1.6289,2.5 -1.6289,4.13281 0,1.6211 0.5664,3.00391 1.69531,4.15625 1.13281,1.15235 2.48828,1.72656 4.0664,1.72656 0.83985,0 1.58594,-0.15625 2.23829,-0.47265 0.64843,-0.3125 1.32421,-0.83985 2.01953,-1.57813 h 3.73047 c -0.66407,1.5625 -1.71094,2.80469 -3.14063,3.71875 -1.42969,0.91797 -3.02344,1.375 -4.77734,1.375 -2.51172,0 -4.64453,-0.87109 -6.39453,-2.61328 -1.75,-1.74219 -2.625,-3.85547 -2.625,-6.33594"
         style="fill:#ffffff;fill-opacity:1;fill-rule:nonzero;stroke:none"
         inkscape:connector-curvature="0" />
      <path
         id="path16"
         d="m 428.41406,291.46875 v -3.03906 h 9.54297 v 3.03906 h -3.17969 v 14.125 h -3.1875 v -14.125 z m 0,0"
         style="fill:#ffffff;fill-opacity:1;fill-rule:nonzero;stroke:none"
         inkscape:connector-curvature="0" />
      <path
         id="path18"
         d="m 439.57812,288.42969 h 3.1875 v 17.16797 h -3.1875 z m 0,0"
         style="fill:#ffffff;fill-opacity:1;fill-rule:nonzero;stroke:none"
         inkscape:connector-curvature="0" />
      <path
         id="path20"
         d="m 448.38281,297.02344 c 0,1.63281 0.5625,3.01562 1.6875,4.14453 1.125,1.1289 2.5,1.6914 4.125,1.6914 1.62891,0 2.98438,-0.55078 4.0625,-1.65625 1.07813,-1.10546 1.61719,-2.49218 1.61719,-4.15625 0,-1.64843 -0.54688,-3.04296 -1.64063,-4.17968 -1.09375,-1.13672 -2.4414,-1.70313 -4.03906,-1.70313 -1.65625,0 -3.03906,0.5586 -4.14844,1.67969 -1.10937,1.12109 -1.66406,2.51562 -1.66406,4.17969 m -3.1875,0 c 0,-2.51172 0.8711,-4.625 2.60938,-6.33594 1.73828,-1.71094 3.88672,-2.56641 6.4375,-2.56641 2.44922,0 4.53125,0.8711 6.24609,2.60547 1.71875,1.73828 2.57813,3.82813 2.57813,6.27344 0,2.51172 -0.85157,4.62109 -2.55469,6.33203 -1.69922,1.71484 -3.79688,2.57031 -6.29297,2.57031 -2.51953,0 -4.65625,-0.85937 -6.40234,-2.58203 -1.75,-1.71875 -2.6211,-3.8164 -2.6211,-6.29687"
         style="fill:#ffffff;fill-opacity:1;fill-rule:nonzero;stroke:none"
         inkscape:connector-curvature="0" />
      <path
         id="path22"
         d="m 465.59375,305.59375 v -17.16406 h 3.69922 l 7.03515,12.35937 v -12.35937 h 3.1875 v 17.16406 h -3.55078 l -7.18359,-12.48047 v 12.48047 z m 0,0"
         style="fill:#ffffff;fill-opacity:1;fill-rule:nonzero;stroke:none"
         inkscape:connector-curvature="0" />
      <path
         id="path24"
         d="m 482.78125,305.59375 v -17.16406 h 4.25781 l 4.67188,13.11718 4.60937,-13.11718 h 4.41406 v 17.16406 h -3.1875 v -12.875 l -4.49609,12.875 h -2.59766 l -4.48046,-12.89063 v 12.89063 z m 0,0"
         style="fill:#8791b3;fill-opacity:1;fill-rule:nonzero;stroke:none"
         inkscape:connector-curvature="0" />
      <path
         id="path26"
         d="m 508.85547,298.11719 h 3.67969 l -1.83985,-5.20703 z m -6.57813,7.47656 7.21485,-17.16406 h 2.42578 l 7.23047,17.16406 h -3.45703 l -1.88672,-4.43359 h -6.10547 l -1.90625,4.43359 z m 0,0"
         style="fill:#8791b3;fill-opacity:1;fill-rule:nonzero;stroke:none"
         inkscape:connector-curvature="0" />
      <path
         id="path28"
         d="m 524.07422,296.62109 h 1.55078 c 1.22656,0 2.11719,-0.20703 2.67578,-0.61328 0.55469,-0.41015 0.83203,-1.07031 0.83203,-1.98437 0,-0.85547 -0.2539,-1.4961 -0.76562,-1.91797 -0.51172,-0.42188 -1.46875,-0.63672 -2.875,-0.63672 h -1.41797 z m -3.19141,8.97266 v -17.16406 h 4.9375 c 1.17969,0 2.11328,0.0937 2.8086,0.27734 0.69531,0.18359 1.32031,0.51563 1.8789,0.99219 1.21094,1.02344 1.8125,2.43359 1.8125,4.23437 0,2.8125 -1.49219,4.58985 -4.47656,5.33203 l 4.63672,6.32813 h -3.92578 l -4.48047,-6.54688 v 6.54688 z m 0,0"
         style="fill:#8791b3;fill-opacity:1;fill-rule:nonzero;stroke:none"
         inkscape:connector-curvature="0" />
      <path
         id="path30"
         d="m 534.35156,305.59375 v -17.16406 h 3.1875 v 7.41015 l 5.32422,-7.41015 h 3.83203 l -6.46484,8.42968 6.46484,8.73438 h -3.83203 l -5.32422,-7.55078 v 7.55078 z m 0,0"
         style="fill:#8791b3;fill-opacity:1;fill-rule:nonzero;stroke:none"
         inkscape:connector-curvature="0" />
      <path
         id="path32"
         d="m 547.34375,291.46875 v -3.03906 h 9.54297 v 3.03906 h -3.17969 v 14.125 h -3.1875 v -14.125 z m 0,0"
         style="fill:#8791b3;fill-opacity:1;fill-rule:nonzero;stroke:none"
         inkscape:connector-curvature="0" />
    </g>
    <path
       style="fill:#ffffff;fill-opacity:1;fill-rule:nonzero;stroke:none"
       d="m 304.82812,282.04687 h -6.375 v 29.92969 h 6.375 v -23.55469 c 3.15235,0 5.71875,2.56641 5.71875,5.72266 0,1.36719 -0.48046,2.625 -1.28125,3.60938 -0.40625,0.49609 -0.80078,0.98828 -0.80078,0.98828 l 4.94922,4.01172 c 0,0 0.53516,-0.65625 0.80078,-0.98438 1.69532,-2.08203 2.70703,-4.73828 2.70703,-7.625 0,-6.66797 -5.42578,-12.09766 -12.09375,-12.09766"
       id="path34"
       inkscape:connector-curvature="0" />
    <path
       style="fill:#8791b3;fill-opacity:1;fill-rule:nonzero;stroke:none"
       d="m 322.00781,282.04687 h -0.0117 l -4.875,6.01563 c 0.91407,1.83594 1.4375,3.89453 1.4375,6.08203 0,0.87109 -0.0898,1.73047 -0.25,2.57813 l 3.69922,-4.5625 v 19.8164 h 6.3711 v -29.92969 z m 0,0"
       id="path36"
       inkscape:connector-curvature="0" />
    <path
       style="fill:#ffffff;fill-opacity:1;fill-rule:nonzero;stroke:none"
       d="m 292.07812,317.17969 v -41.50391 h 41.50782 l 6.375,-6.375 h -54.25391 v 54.25391 z m 0,0"
       id="path38"
       inkscape:connector-curvature="0" />
    <path
       style="fill:#8791b3;fill-opacity:1;fill-rule:nonzero;stroke:none"
       d="m 334.75391,276.83984 v 41.50782 h -41.50782 l -6.375,6.375 H 341.125 v -54.25391 z m 0,0"
       id="path40"
       inkscape:connector-curvature="0" />
  </g>
</svg>
