<?xml version="1.0" encoding="UTF-8" standalone="no"?>
<svg
   xmlns:dc="http://purl.org/dc/elements/1.1/"
   xmlns:cc="http://creativecommons.org/ns#"
   xmlns:rdf="http://www.w3.org/1999/02/22-rdf-syntax-ns#"
   xmlns:svg="http://www.w3.org/2000/svg"
   xmlns="http://www.w3.org/2000/svg"
   xmlns:sodipodi="http://sodipodi.sourceforge.net/DTD/sodipodi-0.dtd"
   xmlns:inkscape="http://www.inkscape.org/namespaces/inkscape"
   width="55.417973pt"
   height="55.421883pt"
   viewBox="0 0 55.417971 55.421883"
   version="1.2"
   id="svg43"
   sodipodi:docname="simple-secondary-dark.svg"
   inkscape:version="0.92.2 5c3e80d, 2017-08-06">
  <metadata
     id="metadata49">
    <rdf:RDF>
      <cc:Work
         rdf:about="">
        <dc:format>image/svg+xml</dc:format>
        <dc:type
           rdf:resource="http://purl.org/dc/dcmitype/StillImage" />
        <dc:title></dc:title>
      </cc:Work>
    </rdf:RDF>
  </metadata>
  <defs
     id="defs47" />
  <sodipodi:namedview
     pagecolor="#ffffff"
     bordercolor="#666666"
     borderopacity="1"
     objecttolerance="10"
     gridtolerance="10"
     guidetolerance="10"
     inkscape:pageopacity="0"
     inkscape:pageshadow="2"
     inkscape:window-width="1689"
     inkscape:window-height="910"
     id="namedview45"
     showgrid="true"
     fit-margin-top="0"
     fit-margin-left="0"
     fit-margin-right="0"
     fit-margin-bottom="0"
     inkscape:zoom="5.4828932"
     inkscape:cx="-28.432623"
     inkscape:cy="43.290835"
     inkscape:window-x="0"
     inkscape:window-y="0"
     inkscape:window-maximized="0"
     inkscape:current-layer="surface703"
     inkscape:pagecheckerboard="true">
    <inkscape:grid
       type="xygrid"
       id="grid851" />
  </sodipodi:namedview>
  <g
     id="surface703"
     transform="translate(-285.70703,-269.30078)">
    <path
       style="fill:#607d8b;fill-opacity:0.9800995;fill-rule:nonzero;stroke:none"
       d="m 304.82812,282.04687 h -6.375 v 29.92969 h 6.375 v -23.55469 c 3.15235,0 5.71875,2.56641 5.71875,5.72266 0,1.36719 -0.48046,2.625 -1.28125,3.60938 -0.40625,0.49609 -0.80078,0.98828 -0.80078,0.98828 l 4.94922,4.01172 c 0,0 0.53516,-0.65625 0.80078,-0.98438 1.69532,-2.08203 2.70703,-4.73828 2.70703,-7.625 0,-6.66797 -5.42578,-12.09766 -12.09375,-12.09766"
       id="path34"
       inkscape:connector-curvature="0" />
    <path
       style="fill:#607d8b;fill-opacity:0.9800995;fill-rule:nonzero;stroke:none"
       d="m 322.00781,282.04687 h -0.0117 l -4.875,6.01563 c 0.91407,1.83594 1.4375,3.89453 1.4375,6.08203 0,0.87109 -0.0898,1.73047 -0.25,2.57813 l 3.69922,-4.5625 v 19.8164 h 6.3711 v -29.92969 z m 0,0"
       id="path36"
       inkscape:connector-curvature="0" />
    <path
       style="fill:#607d8b;fill-opacity:0.9800995;fill-rule:nonzero;stroke:none"
       d="m 292.07812,317.17969 v -41.50391 h 41.50782 l 6.375,-6.375 h -54.25391 v 54.25391 z m 0,0"
       id="path38"
       inkscape:connector-curvature="0" />
    <path
       style="fill:#607d8b;fill-opacity:0.9800995;fill-rule:nonzero;stroke:none"
       d="m 334.75391,276.83984 v 41.50782 h -41.50782 l -6.375,6.375 H 341.125 v -54.25391 z m 0,0"
       id="path40"
       inkscape:connector-curvature="0" />
  </g>
</svg>
